<svg width="17" height="17" viewBox="0 0 17 17" fill="none" xmlns="http://www.w3.org/2000/svg">
<path opacity="0.4" d="M8.90382 16.8078C13.3153 16.8078 16.9565 13.1665 16.9565 8.76283C16.9565 4.35912 13.3075 0.717896 8.89604 0.717896C4.49234 0.717896 0.858887 4.35912 0.858887 8.76283C0.858887 13.1665 4.50012 16.8078 8.90382 16.8078ZM8.90382 15.205C5.33262 15.205 2.47721 12.334 2.47721 8.76283C2.47721 5.19163 5.33262 2.32844 8.89604 2.32844C12.4672 2.32844 15.3382 5.19163 15.346 8.76283C15.3538 12.334 12.475 15.205 8.90382 15.205ZM6.03286 9.50197H8.16469V11.6416C8.16469 12.0695 8.46812 12.3729 8.88826 12.3729C9.32397 12.3729 9.63518 12.0695 9.63518 11.6416V9.50197H11.7748C12.2027 9.50197 12.5139 9.19854 12.5139 8.77061C12.5139 8.34269 12.2105 8.03148 11.7748 8.03148H9.63518V5.89186C9.63518 5.45616 9.32397 5.15273 8.88826 5.15273C8.46812 5.15273 8.16469 5.45616 8.16469 5.89186V8.03148H6.03286C5.58937 8.03148 5.28594 8.34269 5.28594 8.77061C5.28594 9.19854 5.59715 9.50197 6.03286 9.50197Z" fill="#1C1C1E"/>
</svg>
